<svg xmlns="http://www.w3.org/2000/svg" width="512" height="512" viewBox="0 0 512 512">
  <!-- Background gradient -->
  <defs>
    <linearGradient id="bg-gradient" x1="0%" y1="0%" x2="100%" y2="100%">
      <stop offset="0%" stop-color="#0f0c29" />
      <stop offset="50%" stop-color="#302b63" />
      <stop offset="100%" stop-color="#24243e" />
    </linearGradient>
    <linearGradient id="pink-gradient" x1="0%" y1="0%" x2="100%" y2="100%">
      <stop offset="0%" stop-color="#ff3399" />
      <stop offset="100%" stop-color="#ff66b3" />
    </linearGradient>
    <filter id="glow" x="-20%" y="-20%" width="140%" height="140%">
      <feGaussianBlur stdDeviation="8" result="blur" />
      <feComposite in="SourceGraphic" in2="blur" operator="over" />
    </filter>
  </defs>
  
  <!-- Background circle -->
  <circle cx="256" cy="256" r="240" fill="url(#bg-gradient)" />
  
  <!-- Jenga tower stylized -->
  <g transform="translate(256, 256) rotate(-15) translate(-256, -256)">
    <!-- Bottom layer -->
    <rect x="136" y="310" width="240" height="50" rx="4" fill="#ff3399" filter="url(#glow)" />
    
    <!-- Middle layers -->
    <rect x="166" y="260" width="180" height="50" rx="4" fill="#ff66b3" filter="url(#glow)" />
    <rect x="136" y="210" width="240" height="50" rx="4" fill="#ff3399" filter="url(#glow)" />
    <rect x="166" y="160" width="180" height="50" rx="4" fill="#ff66b3" filter="url(#glow)" />
    
    <!-- Top layer (slightly shifted) -->
    <rect x="156" y="110" width="200" height="50" rx="4" fill="#ff3399" filter="url(#glow)" />
  </g>
  
  <!-- Heart element -->
  <path d="M256,150 C280,120 320,120 340,150 C360,180 340,220 256,270 C172,220 152,180 172,150 C192,120 232,120 256,150 Z" 
        fill="url(#pink-gradient)" 
        filter="url(#glow)" 
        opacity="0.7" />
</svg> 